<svg width="32" height="32" viewBox="0 0 32 32" fill="none" xmlns="http://www.w3.org/2000/svg">
  <!-- Chez Amis Logo - Fork and Spoon with Banner -->
  <!-- Red Fork (Left) -->
  <path d="M8 4 L8 20 L6 22 L6 24 L10 24 L10 22 L8 20 L8 4 Z" fill="#DC2626" stroke="#B91C1C" stroke-width="0.5"/>
  <path d="M6 8 Q6 6 8 6 Q10 6 10 8" stroke="#FFFFFF" stroke-width="0.5" fill="none"/>
  
  <!-- Red Spoon (Right) -->
  <path d="M24 4 L24 20 L26 22 L26 24 L22 24 L22 22 L24 20 L24 4 Z" fill="#DC2626" stroke="#B91C1C" stroke-width="0.5"/>
  <ellipse cx="24" cy="8" rx="2" ry="1.5" fill="#FFFFFF" opacity="0.3"/>
  
  <!-- Black Banner -->
  <path d="M6 12 Q6 10 8 10 L24 10 Q26 10 26 12 L26 18 Q26 20 24 20 L8 20 Q6 20 6 18 Z" fill="#1C1917"/>
  
  <!-- "Chez Amis" Text on Banner (simplified for small size) -->
  <text x="16" y="16" font-family="serif" font-size="6" fill="#FFFFFF" text-anchor="middle" font-weight="bold">CA</text>
  <text x="16" y="20" font-family="sans-serif" font-size="3" fill="#FFFFFF" text-anchor="middle">BAR &amp; GRILL</text>
</svg>
